<svg xmlns="http://www.w3.org/2000/svg" width="1400" height="820" viewBox="0 0 1400 820">
<rect width="1400" height="820" fill="#0d0d0d"/><text x="70" y="80" fill="#f5f5f5" font-family="Arial" font-size="38" font-weight="300">BiliLearn · System Architecture</text>
<text x="70" y="116" fill="#999" font-family="Arial" font-size="16">v3.1.6 local-first AI learning and interaction workspace</text>
<g font-family="Arial" font-size="18" fill="#f5f5f5" stroke="#d97757" stroke-width="2">
<rect x="70" y="180" width="260" height="130" rx="12" fill="#1a1a1a"/><rect x="380" y="180" width="260" height="130" rx="12" fill="#1a1a1a"/><rect x="690" y="180" width="260" height="130" rx="12" fill="#1a1a1a"/><rect x="1000" y="180" width="330" height="130" rx="12" fill="#1a1a1a"/>
<rect x="70" y="410" width="260" height="150" rx="12" fill="#141414"/><rect x="380" y="410" width="260" height="150" rx="12" fill="#141414"/><rect x="690" y="410" width="260" height="150" rx="12" fill="#141414"/><rect x="1000" y="410" width="330" height="150" rx="12" fill="#141414"/>
</g>
<g font-family="Arial" fill="#f5f5f5" font-size="22" text-anchor="middle"><text x="200" y="225">Web Panel</text><text x="200" y="258" font-size="15" fill="#bbb">Flask API · UI · auth</text><text x="510" y="225">Learning Loop</text><text x="510" y="258" font-size="15" fill="#bbb">goals · tree · mastery</text><text x="820" y="225">Agent Layer</text><text x="820" y="258" font-size="15" fill="#bbb">tools · personas · MCP</text><text x="1165" y="225">Bilibili / AI Providers</text><text x="1165" y="258" font-size="15" fill="#bbb">Cookie · OpenAI-compatible API</text><text x="200" y="458">Knowledge</text><text x="200" y="492" font-size="15" fill="#bbb">notes · graph · exports</text><text x="510" y="458">Safety & Review</text><text x="510" y="492" font-size="15" fill="#bbb">policy · audit · retry</text><text x="820" y="458">Runtime Services</text><text x="820" y="492" font-size="15" fill="#bbb">ASR · deep study · reminders</text><text x="1165" y="458">Local Data</text><text x="1165" y="492" font-size="15" fill="#bbb">%LOCALAPPDATA%/BiliLearn</text></g>
<g stroke="#e8916a" stroke-width="3" fill="none" marker-end="url(#a)"><path d="M330 245h50"/><path d="M640 245h50"/><path d="M950 245h50"/><path d="M510 310v100"/><path d="M820 310v100"/><path d="M200 310v100"/><path d="M330 485h50"/><path d="M640 485h50"/><path d="M950 485h50"/><path d="M1165 310v100"/><path d="M1165 560v100H200V560"/></g><defs><marker id="a" markerWidth="10" markerHeight="10" refX="8" refY="3" orient="auto"><path d="M0,0 L0,6 L9,3 z" fill="#e8916a"/></marker></defs>
<text x="70" y="750" fill="#999" font-family="Arial" font-size="15">Data stays local by default; external calls occur only when configured and explicitly triggered.</text></svg>
